# xmcd
#
# Track frame offsets:
#	225
#	15783
#	29529
#	43222
#	59527
#	72932
#	86586
#	103655
#	116603
#	133440
#	147616
#	162596
#	175440
#	197555
#	211049
#	224524
#
# Disc length: 3179 seconds
#
# Revision: 1
# Processed by: cddbd v1.5.2PL0 Copyright (c) Steve Scherf et al.
# Submitted via: audiograbber 1.83.01
#
DISCID=f90c6810
DTITLE=Various Artist - Sierra Madre
DYEAR=2003
DGENRE=Folklore
TTITLE0=Stefan Peters - Sierra Madre
TTITLE1=Nina and Mike - Santo Domingo
TTITLE2=Maria Vivaldelli and Ulli Bastian - Wenn die Sehnsucht kommt
TTITLE3=Blaumeisen - Como está Mexico
TTITLE4=Die Jauntaler - Du bist kein Mädchen für die Berge
TTITLE5=Mariella - Wenn ein Stern vom Himmel fällt
TTITLE6=Tiroler Nachtschwärmer - Coro Alpino
TTITLE7=Servus aus Tirol - Vaya con dios, Maria
TTITLE8=Orig. Alpenland Quintett - Adios Amigos
TTITLE9=Anni Jäger - Barcarole d`amour
TTITLE10=Goldried Quintett - Sehnsucht im Herzen
TTITLE11=Margret Almer - Komm wieder einsamer Gaucho
TTITLE12=Alpentrio Tirol - Mama i bitt` di schau oba
TTITLE13=Duo Sonnenschein - Und auf einmal ging die Sonne auf
TTITLE14=Die Mayrhofner - Geh` niemals fort
TTITLE15=Horst Chmela - Una notte d`amore
EXTD=
EXTT0=
EXTT1=
EXTT2=
EXTT3=
EXTT4=
EXTT5=
EXTT6=
EXTT7=
EXTT8=
EXTT9=
EXTT10=
EXTT11=
EXTT12=
EXTT13=
EXTT14=
EXTT15=
PLAYORDER=
